<svg width="167" height="112" viewBox="0 0 167 112" fill="none" xmlns="http://www.w3.org/2000/svg">
    <path d="M11.496 64L7.608 57.184H4.92V64H1.752V47.2H8.928C10.768 47.2 12.224 47.632 13.296 48.496C14.368 49.344 14.904 50.496 14.904 51.952C14.904 54.336 13.624 55.984 11.064 56.896L15.12 64H11.496ZM4.92 49.984V54.4H8.928C10.8 54.4 11.736 53.664 11.736 52.192C11.736 50.72 10.8 49.984 8.928 49.984H4.92Z" fill="black"/>
    <path d="M161.496 64L157.608 57.184H154.92V64H151.752V47.2H158.928C160.768 47.2 162.224 47.632 163.296 48.496C164.368 49.344 164.904 50.496 164.904 51.952C164.904 54.336 163.624 55.984 161.064 56.896L165.12 64H161.496ZM154.92 49.984V54.4H158.928C160.8 54.4 161.736 53.664 161.736 52.192C161.736 50.72 160.8 49.984 158.928 49.984H154.92Z" fill="black"/>
    <path d="M42.96 61.344V58.896H54.576V61.344H42.96ZM42.96 56.544V54.096H54.576V56.544H42.96Z" fill="black"/>
    <path d="M67.5 56.5H141" stroke="black" stroke-linecap="square"/>
    <path d="M17.06 72L20.456 63.6H21.968L25.364 72H23.672L22.832 69.804H19.592L18.752 72H17.06ZM20.9 66.372L20.132 68.388H22.292L21.524 66.372C21.42 66.1 21.316 65.796 21.212 65.46L20.9 66.372ZM26.1026 72V63.6H29.5586C30.4146 63.6 31.0746 63.78 31.5386 64.14C32.0106 64.5 32.2466 65.004 32.2466 65.652C32.2466 66.06 32.1346 66.42 31.9106 66.732C31.6946 67.036 31.4186 67.272 31.0826 67.44C32.0906 67.84 32.5946 68.52 32.5946 69.48C32.5946 70.248 32.3066 70.86 31.7306 71.316C31.1626 71.772 30.4586 72 29.6186 72H26.1026ZM27.6866 68.256V70.584H29.5226C30.5146 70.584 31.0106 70.196 31.0106 69.42C31.0106 68.644 30.5146 68.256 29.5226 68.256H27.6866ZM27.6866 64.992V66.864H29.4386C29.8786 66.864 30.1986 66.788 30.3986 66.636C30.6066 66.484 30.7106 66.248 30.7106 65.928C30.7106 65.608 30.6066 65.372 30.3986 65.22C30.1986 65.068 29.8786 64.992 29.4386 64.992H27.6866Z" fill="black"/>
</svg>
