<svg id="Слой_1" data-name="Слой 1" xmlns="http://www.w3.org/2000/svg" viewBox="0 0 476.42 53.18"><defs><style>.cls-1{fill:#fff;}</style></defs><title>Remy_logo_white</title><path id="_Path_" data-name="&lt;Path&gt;" class="cls-1" d="M82,49.65H69.56V68.36H62.35V42.52H82a9.45,9.45,0,0,0,9.84-9.77c0-5.18-3.54-9.84-9.84-9.84H62.35V15.78H82c10.66,0,17.2,7.59,17.2,17,0,6.91-3.61,12.85-9.84,15.48l11.34,20.13H92.54Z" transform="translate(-62.35 -15.78)"/><polygon id="_Path_2" data-name="&lt;Path&gt;" class="cls-1" points="80.37 45.37 80.37 52.58 45.52 52.58 45.52 0 79.99 0 79.99 7.14 52.65 7.14 52.65 22.76 77.67 22.76 77.67 29.75 52.65 29.75 52.65 45.37 80.37 45.37"/><polygon id="_Path_3" data-name="&lt;Path&gt;" class="cls-1" points="140.16 0 140.16 52.58 133.02 52.58 133.02 13.74 116.72 40.19 112.06 40.19 95.77 13.74 95.77 52.58 88.63 52.58 88.63 0 95.54 0 114.39 30.87 133.25 0 140.16 0"/><polygon id="_Path_4" data-name="&lt;Path&gt;" class="cls-1" points="170.8 33.2 170.8 52.58 163.59 52.58 163.59 33.2 145.79 0 153.98 0 167.2 24.94 180.42 0 188.6 0 170.8 33.2"/><path id="_Path_5" data-name="&lt;Path&gt;" class="cls-1" d="M294,68.36,282.27,47.63a27,27,0,0,1-3.53.3H262.51V68.36H260V45.3h18.78c8,0,14.42-5.11,14.42-13.45s-6.24-13.44-14.42-13.44H260V15.78h18.78c9.61,0,17.2,6.38,17.2,16.07a15.2,15.2,0,0,1-11,15.1L297,68.36Z" transform="translate(-62.35 -15.78)"/><path id="_Compound_Path_" data-name="&lt;Compound Path&gt;" class="cls-1" d="M336.8,50.26c0-8.87-5.64-16.08-14.5-16.08s-14.57,7.21-14.57,16.08,5.71,16.07,14.57,16.07,14.5-7.21,14.5-16.07m2.85,0c0,10.29-7.06,18.62-17.35,18.62s-17.42-8.33-17.42-18.62S312,31.63,322.3,31.63,339.65,40,339.65,50.26" transform="translate(-62.35 -15.78)"/><path id="_Compound_Path_2" data-name="&lt;Compound Path&gt;" class="cls-1" d="M380.89,50.26c0-8.87-5.26-16.08-14.12-16.08s-14.12,7.21-14.12,16.08,5.25,16.07,14.12,16.07,14.12-7.21,14.12-16.07m2.78,0c0,10.29-6.61,18.62-16.9,18.62A15.39,15.39,0,0,1,352.42,60v8.34h-2.63V15.78h2.63V40.49a15.39,15.39,0,0,1,14.35-8.86c10.29,0,16.9,8.33,16.9,18.63" transform="translate(-62.35 -15.78)"/><path id="_Compound_Path_3" data-name="&lt;Compound Path&gt;" class="cls-1" d="M423.48,50.26c0-8.87-5.64-16.08-14.5-16.08s-14.57,7.21-14.57,16.08S400.12,66.33,409,66.33s14.5-7.21,14.5-16.07m2.85,0c0,10.29-7.06,18.62-17.35,18.62s-17.43-8.33-17.43-18.62S398.69,31.63,409,31.63,426.33,40,426.33,50.26" transform="translate(-62.35 -15.78)"/><path id="_Path_6" data-name="&lt;Path&gt;" class="cls-1" d="M452.17,66.86a11.36,11.36,0,0,1-6.61,2c-5.94,0-8-4-8-10.44V34.78H432V32.15h5.56V22.31l2.63-.75V32.15h9v2.63h-9V58.89c0,4.13,1.43,7.36,5.41,7.36a9.51,9.51,0,0,0,5.33-1.65Z" transform="translate(-62.35 -15.78)"/><path id="_Compound_Path_4" data-name="&lt;Compound Path&gt;" class="cls-1" d="M460.36,32.15H463V68.36h-2.62Zm3.38-9a2.07,2.07,0,1,1-2.11-2.1,2.1,2.1,0,0,1,2.11,2.1" transform="translate(-62.35 -15.78)"/><path id="_Path_7" data-name="&lt;Path&gt;" class="cls-1" d="M502.79,59.12l2.48,1.2a16.74,16.74,0,0,1-14.8,8.56c-10.29,0-17.35-8.33-17.35-18.62s7.06-18.63,17.35-18.63a16.74,16.74,0,0,1,14.8,8.56l-2.48,1.13a13.86,13.86,0,0,0-12.32-7.14c-8.86,0-14.57,7.21-14.57,16.08s5.71,16.07,14.57,16.07a13.76,13.76,0,0,0,12.32-7.21" transform="translate(-62.35 -15.78)"/><path id="_Path_8" data-name="&lt;Path&gt;" class="cls-1" d="M538.77,58.82C538.77,65.58,533,69,526.6,69c-7.43,0-12.62-3.68-14.19-8.34l2.47-1.13C516,63,519.77,66.4,526.6,66.4c4.88,0,9.54-2.32,9.54-7.58,0-4.06-4.21-5.71-10.59-7.36-5.86-1.5-11.34-3.53-12-9.17s3.68-10.74,11.72-10.74c6.31,0,10.52,3.46,12.09,8.19l-2.4,1c-1.43-3.91-4.66-6.54-9.69-6.54-6.53,0-9.54,3.68-9.09,7.81.45,3.83,4.81,5.56,10,6.91,5.93,1.58,12.62,3.53,12.62,9.92" transform="translate(-62.35 -15.78)"/></svg>