<svg width="340" height="198" viewBox="0 0 340 198" fill="none" xmlns="http://www.w3.org/2000/svg">
    <path d="M65 98H17.5" stroke="black" stroke-linecap="square"/>
    <path fill-rule="evenodd" clip-rule="evenodd" d="M14 112C21.732 112 28 105.732 28 98C28 90.268 21.732 84 14 84C6.26801 84 0 90.268 0 98C0 105.732 6.26801 112 14 112Z" fill="black"/>
    <path d="M8.08 103L12.608 91.8H14.624L19.152 103H16.896L15.776 100.072H11.456L10.336 103H8.08ZM13.2 95.496L12.176 98.184H15.056L14.032 95.496C13.8933 95.1333 13.7547 94.728 13.616 94.28L13.2 95.496Z" fill="white"/>
    <path fill-rule="evenodd" clip-rule="evenodd" d="M326 112C333.732 112 340 105.732 340 98C340 90.268 333.732 84 326 84C318.268 84 312 90.268 312 98C312 105.732 318.268 112 326 112Z" fill="black"/>
    <path d="M322.168 103V91.8H326.776C327.917 91.8 328.797 92.04 329.416 92.52C330.045 93 330.36 93.672 330.36 94.536C330.36 95.08 330.211 95.56 329.912 95.976C329.624 96.3813 329.256 96.696 328.808 96.92C330.152 97.4533 330.824 98.36 330.824 99.64C330.824 100.664 330.44 101.48 329.672 102.088C328.915 102.696 327.976 103 326.856 103H322.168ZM324.28 98.008V101.112H326.728C328.051 101.112 328.712 100.595 328.712 99.56C328.712 98.5253 328.051 98.008 326.728 98.008H324.28ZM324.28 93.656V96.152H326.616C327.203 96.152 327.629 96.0507 327.896 95.848C328.173 95.6453 328.312 95.3307 328.312 94.904C328.312 94.4773 328.173 94.1627 327.896 93.96C327.629 93.7573 327.203 93.656 326.616 93.656H324.28Z" fill="white"/>
    <path d="M320 98H272.5" stroke="black" stroke-linecap="square"/>
    <rect x="65.5" y="35.5" width="207" height="128" fill="#D8D8D8" fill-opacity="0.01" stroke="black"/>
    <path d="M170.5 36V163" stroke="black" stroke-linecap="square"/>
    <rect x="101" y="27" width="40" height="16" fill="black"/>
    <rect x="101" y="155" width="40" height="16" fill="black"/>
    <rect x="197" y="155" width="40" height="16" fill="black"/>
    <rect x="197" y="27" width="40" height="16" fill="black"/>
    <rect x="179" y="80" width="40" height="16" transform="rotate(90 179 80)" fill="black"/>
    <path d="M117.68 14.312C116.955 14.92 115.979 15.224 114.752 15.224C113.525 15.224 112.549 14.92 111.824 14.312C111.099 13.704 110.736 12.8987 110.736 11.896C110.736 11.224 110.907 10.6373 111.248 10.136C111.589 9.63467 112.059 9.256 112.656 9C111.6 8.46667 111.072 7.64 111.072 6.52C111.072 5.656 111.413 4.952 112.096 4.408C112.779 3.85333 113.664 3.576 114.752 3.576C115.84 3.576 116.725 3.85333 117.408 4.408C118.091 4.952 118.432 5.656 118.432 6.52C118.432 7.64 117.904 8.46667 116.848 9C117.445 9.256 117.915 9.63467 118.256 10.136C118.597 10.6373 118.768 11.224 118.768 11.896C118.768 12.8987 118.405 13.704 117.68 14.312ZM113.344 13C113.717 13.3307 114.187 13.496 114.752 13.496C115.317 13.496 115.787 13.3307 116.16 13C116.533 12.6587 116.72 12.232 116.72 11.72C116.72 11.208 116.533 10.7867 116.16 10.456C115.787 10.1147 115.317 9.944 114.752 9.944C114.187 9.944 113.717 10.1147 113.344 10.456C112.971 10.7867 112.784 11.208 112.784 11.72C112.784 12.232 112.971 12.6587 113.344 13ZM113.568 5.544C113.248 5.81067 113.088 6.184 113.088 6.664C113.088 7.144 113.248 7.52267 113.568 7.8C113.899 8.07733 114.293 8.216 114.752 8.216C115.211 8.216 115.6 8.07733 115.92 7.8C116.251 7.52267 116.416 7.144 116.416 6.664C116.416 6.184 116.251 5.81067 115.92 5.544C115.6 5.27733 115.211 5.144 114.752 5.144C114.293 5.144 113.899 5.27733 113.568 5.544ZM127.039 15L124.447 10.456H122.655V15H120.543V3.8H125.327C126.554 3.8 127.524 4.088 128.239 4.664C128.954 5.22933 129.311 5.99733 129.311 6.968C129.311 8.55733 128.458 9.656 126.751 10.264L129.455 15H127.039ZM122.655 5.656V8.6H125.327C126.575 8.6 127.199 8.10933 127.199 7.128C127.199 6.14667 126.575 5.656 125.327 5.656H122.655Z" fill="black"/>
    <path d="M218.664 15L216.072 10.456H214.28V15H212.168V3.8H216.952C218.179 3.8 219.149 4.088 219.864 4.664C220.579 5.22933 220.936 5.99733 220.936 6.968C220.936 8.55733 220.083 9.656 218.376 10.264L221.08 15H218.664ZM214.28 5.656V8.6H216.952C218.2 8.6 218.824 8.10933 218.824 7.128C218.824 6.14667 218.2 5.656 216.952 5.656H214.28Z" fill="black"/>
    <path d="M110.976 190.808L112.976 191.288C112.933 191.416 112.912 191.571 112.912 191.752C112.912 192.264 113.088 192.675 113.44 192.984C113.792 193.283 114.251 193.432 114.816 193.432C115.413 193.432 115.888 193.277 116.24 192.968C116.603 192.659 116.784 192.221 116.784 191.656C116.784 191.016 116.523 190.547 116 190.248C115.488 189.949 114.795 189.8 113.92 189.8V188.232C114.688 188.232 115.28 188.093 115.696 187.816C116.112 187.528 116.32 187.128 116.32 186.616C116.32 186.221 116.176 185.907 115.888 185.672C115.611 185.427 115.232 185.304 114.752 185.304C114.283 185.304 113.893 185.421 113.584 185.656C113.275 185.891 113.12 186.205 113.12 186.6C113.12 186.813 113.152 186.995 113.216 187.144L111.264 187.576C111.157 187.256 111.104 186.963 111.104 186.696C111.104 185.843 111.44 185.112 112.112 184.504C112.784 183.885 113.669 183.576 114.768 183.576C115.941 183.576 116.832 183.832 117.44 184.344C118.059 184.845 118.368 185.507 118.368 186.328C118.368 186.904 118.213 187.416 117.904 187.864C117.595 188.301 117.2 188.627 116.72 188.84C117.36 189.053 117.883 189.4 118.288 189.88C118.693 190.349 118.896 190.941 118.896 191.656C118.896 192.744 118.517 193.613 117.76 194.264C117.003 194.904 116.021 195.224 114.816 195.224C113.557 195.224 112.571 194.893 111.856 194.232C111.152 193.571 110.8 192.76 110.8 191.8C110.8 191.427 110.859 191.096 110.976 190.808ZM127.055 195L124.463 190.456H122.671V195H120.559V183.8H125.343C126.569 183.8 127.54 184.088 128.255 184.664C128.969 185.229 129.327 185.997 129.327 186.968C129.327 188.557 128.473 189.656 126.767 190.264L129.471 195H127.055ZM122.671 185.656V188.6H125.343C126.591 188.6 127.215 188.109 127.215 187.128C127.215 186.147 126.591 185.656 125.343 185.656H122.671Z" fill="black"/>
    <path d="M208.752 193.496L213.008 189.32C213.488 188.851 213.824 188.451 214.016 188.12C214.219 187.789 214.32 187.427 214.32 187.032C214.32 186.552 214.165 186.168 213.856 185.88C213.547 185.581 213.131 185.432 212.608 185.432C212.085 185.432 211.664 185.576 211.344 185.864C211.024 186.141 210.864 186.525 210.864 187.016C210.864 187.283 210.912 187.539 211.008 187.784L208.96 188.168C208.821 187.816 208.752 187.395 208.752 186.904C208.752 185.997 209.104 185.219 209.808 184.568C210.523 183.907 211.456 183.576 212.608 183.576C213.803 183.576 214.725 183.875 215.376 184.472C216.037 185.069 216.368 185.843 216.368 186.792C216.368 187.528 216.224 188.173 215.936 188.728C215.659 189.272 215.152 189.896 214.416 190.6L211.904 193.048H216.368V195H208.752V193.496ZM225.039 195L222.447 190.456H220.655V195H218.543V183.8H223.327C224.554 183.8 225.524 184.088 226.239 184.664C226.954 185.229 227.311 185.997 227.311 186.968C227.311 188.557 226.458 189.656 224.751 190.264L227.455 195H225.039ZM220.655 185.656V188.6H223.327C224.575 188.6 225.199 188.109 225.199 187.128C225.199 186.147 224.575 185.656 223.327 185.656H220.655Z" fill="black"/>
    <path d="M191.752 104.496L196.008 100.32C196.488 99.8507 196.824 99.4507 197.016 99.12C197.219 98.7893 197.32 98.4267 197.32 98.032C197.32 97.552 197.165 97.168 196.856 96.88C196.547 96.5813 196.131 96.432 195.608 96.432C195.085 96.432 194.664 96.576 194.344 96.864C194.024 97.1413 193.864 97.5253 193.864 98.016C193.864 98.2827 193.912 98.5387 194.008 98.784L191.96 99.168C191.821 98.816 191.752 98.3947 191.752 97.904C191.752 96.9973 192.104 96.2187 192.808 95.568C193.523 94.9067 194.456 94.576 195.608 94.576C196.803 94.576 197.725 94.8747 198.376 95.472C199.037 96.0693 199.368 96.8427 199.368 97.792C199.368 98.528 199.224 99.1733 198.936 99.728C198.659 100.272 198.152 100.896 197.416 101.6L194.904 104.048H199.368V106H191.752V104.496ZM208.039 106L205.447 101.456H203.655V106H201.543V94.8H206.327C207.554 94.8 208.524 95.088 209.239 95.664C209.954 96.2293 210.311 96.9973 210.311 97.968C210.311 99.5573 209.458 100.656 207.751 101.264L210.455 106H208.039ZM203.655 96.656V99.6H206.327C207.575 99.6 208.199 99.1093 208.199 98.128C208.199 97.1467 207.575 96.656 206.327 96.656H203.655Z" fill="black"/>
</svg>
